HIERARCHY
ROOT Hips
{
	OFFSET 0.000000 83.214638 0.000000
	CHANNELS 6 Xposition Yposition Zposition Xrotation Yrotation Zrotation
	JOINT Pelvis
	{
		OFFSET 0.000000 0.000000 0.000000
		CHANNELS 3 Xrotation Yrotation Zrotation
		JOINT LeftUpLeg
		{
			OFFSET 8.479700 -4.795502 -0.379100
			CHANNELS 3 Xrotation Yrotation Zrotation
			JOINT LeftLeg
			{
				OFFSET 0.024144 -32.555107 0.112900
				CHANNELS 3 Xrotation Yrotation Zrotation
				JOINT LeftFoot
				{
					OFFSET -0.024144 -32.638630 -3.012600
					CHANNELS 3 Xrotation Yrotation Zrotation
					JOINT LeftToeBase
					{
						OFFSET 0.970200 -13.225400 11.864200
						CHANNELS 3 Xrotation Yrotation Zrotation
						End Site
						{
							OFFSET 0.000000 12.319262 0.000000
						}
					}
					JOINT LFootTongue
					{
						OFFSET 1.142400 -1.059800 6.665200
						CHANNELS 3 Xrotation Yrotation Zrotation
						End Site
						{
							OFFSET 0.000000 12.319262 0.000000
						}
					}
				}
				JOINT LeftPantLeg
				{
					OFFSET 0.918482 -16.533964 -2.284700
					CHANNELS 3 Xrotation Yrotation Zrotation
					End Site
					{
						OFFSET 0.350399 24.744368 0.000000
					}
				}
			}
		}
		JOINT RightUpLeg
		{
			OFFSET -8.479700 -4.795502 -0.379100
			CHANNELS 3 Xrotation Yrotation Zrotation
			JOINT RightLeg
			{
				OFFSET -0.023144 -32.555092 0.112900
				CHANNELS 3 Xrotation Yrotation Zrotation
				JOINT RightFoot
				{
					OFFSET 0.023144 -32.638641 -3.012700
					CHANNELS 3 Xrotation Yrotation Zrotation
					JOINT RightToeBase
					{
						OFFSET -0.970200 -13.225400 11.864200
						CHANNELS 3 Xrotation Yrotation Zrotation
						End Site
						{
							OFFSET 0.000000 12.319244 0.000000
						}
					}
					JOINT RFootTongue
					{
						OFFSET -1.142200 -1.059800 6.665200
						CHANNELS 3 Xrotation Yrotation Zrotation
						End Site
						{
							OFFSET 0.000000 12.319243 0.000000
						}
					}
				}
				JOINT RightPantLeg
				{
					OFFSET -0.919482 -16.533978 -2.284800
					CHANNELS 3 Xrotation Yrotation Zrotation
					End Site
					{
						OFFSET -0.350400 24.744419 0.000000
					}
				}
			}
		}
	}
	JOINT Spine
	{
		OFFSET 0.000000 7.722000 1.166200
		CHANNELS 3 Xrotation Yrotation Zrotation
		JOINT Spine1
		{
			OFFSET 0.000000 12.024101 0.248800
			CHANNELS 3 Xrotation Yrotation Zrotation
			JOINT Spine2
			{
				OFFSET 0.000000 11.502998 -0.491200
				CHANNELS 3 Xrotation Yrotation Zrotation
				JOINT Neck
				{
					OFFSET 0.000000 18.430702 -3.123100
					CHANNELS 3 Xrotation Yrotation Zrotation
					JOINT Head
					{
						OFFSET 0.000000 9.051102 1.034000
						CHANNELS 3 Xrotation Yrotation Zrotation
						JOINT HairB
						{
							OFFSET 0.208400 24.786102 24.822300
							CHANNELS 3 Xrotation Yrotation Zrotation
							End Site
							{
								OFFSET 0.000000 32.263779 0.000000
							}
						}
						JOINT HairA
						{
							OFFSET -7.081100 24.428299 23.196600
							CHANNELS 3 Xrotation Yrotation Zrotation
							End Site
							{
								OFFSET 0.000000 32.263779 0.000000
							}
						}
						JOINT Hat
						{
							OFFSET 16.728800 15.048294 -15.439601
							CHANNELS 3 Xrotation Yrotation Zrotation
							End Site
							{
								OFFSET 0.000000 32.263779 0.000000
							}
						}
					}
				}
				JOINT LeftShoulder
				{
					OFFSET 6.197800 13.665199 -4.064700
					CHANNELS 3 Xrotation Yrotation Zrotation
					JOINT LeftArm
					{
						OFFSET 7.778100 -0.187103 -1.709300
						CHANNELS 3 Xrotation Yrotation Zrotation
						JOINT LeftForeArm
						{
							OFFSET 22.049376 0.000000 0.000000
							CHANNELS 3 Xrotation Yrotation Zrotation
							JOINT LeftHand
							{
								OFFSET 23.009392 0.000000 0.000000
								CHANNELS 3 Xrotation Yrotation Zrotation
								JOINT LeftHandThumb1
								{
									OFFSET 3.507191 -2.063065 3.133727
									CHANNELS 3 Xrotation Yrotation Zrotation
									JOINT LeftHandThumb2
									{
										OFFSET 3.101337 -1.790558 1.790558
										CHANNELS 3 Xrotation Yrotation Zrotation
										JOINT LeftHandThumb3
										{
											OFFSET 3.058640 -1.765907 1.765906
											CHANNELS 3 Xrotation Yrotation Zrotation
											End Site
											{
												OFFSET -0.415260 3.926476 -0.049563
											}
										}
									}
								}
								JOINT LeftHandIndex1
								{
									OFFSET 11.334419 -0.901459 3.706815
									CHANNELS 3 Xrotation Yrotation Zrotation
									JOINT LeftHandIndex2
									{
										OFFSET 3.283112 0.000000 0.000000
										CHANNELS 3 Xrotation Yrotation Zrotation
										JOINT LeftHandIndex3
										{
											OFFSET 3.323853 0.000000 0.000000
											CHANNELS 3 Xrotation Yrotation Zrotation
											End Site
											{
												OFFSET -1.135597 3.097809 0.402452
											}
										}
									}
								}
								JOINT LeftHandMiddle1
								{
									OFFSET 11.335861 0.000000 0.000000
									CHANNELS 3 Xrotation Yrotation Zrotation
									JOINT LeftHandMiddle2
									{
										OFFSET 3.410492 0.000000 0.000000
										CHANNELS 3 Xrotation Yrotation Zrotation
										JOINT LeftHandMiddle3
										{
											OFFSET 3.312172 0.000000 0.000000
											CHANNELS 3 Xrotation Yrotation Zrotation
											End Site
											{
												OFFSET -1.150200 3.080154 0.400270
											}
										}
									}
								}
								JOINT LeftHandRing1
								{
									OFFSET 11.514786 -0.013176 -3.003090
									CHANNELS 3 Xrotation Yrotation Zrotation
									JOINT LeftHandRing2
									{
										OFFSET 3.053307 0.000000 0.000000
										CHANNELS 3 Xrotation Yrotation Zrotation
										JOINT LeftHandRing3
										{
											OFFSET 3.295807 0.000000 0.000000
											CHANNELS 3 Xrotation Yrotation Zrotation
											End Site
											{
												OFFSET -1.281006 3.013344 0.375733
											}
										}
									}
								}
								JOINT LeftHandPinky1
								{
									OFFSET 10.518692 -0.960396 -5.730441
									CHANNELS 3 Xrotation Yrotation Zrotation
									JOINT LeftHandPinky2
									{
										OFFSET 2.861649 0.000000 0.000000
										CHANNELS 3 Xrotation Yrotation Zrotation
										JOINT LeftHandPinky3
										{
											OFFSET 2.863380 0.000000 0.000000
											CHANNELS 3 Xrotation Yrotation Zrotation
											End Site
											{
												OFFSET -0.843597 2.711159 0.369971
											}
										}
									}
								}
							}
							JOINT LSleeve
							{
								OFFSET 6.676277 -0.344902 -1.011730
								CHANNELS 3 Xrotation Yrotation Zrotation
								End Site
								{
									OFFSET 0.000000 14.885353 0.000000
								}
							}
						}
					}
				}
				JOINT RightShoulder
				{
					OFFSET -6.197800 13.665199 -4.064700
					CHANNELS 3 Xrotation Yrotation Zrotation
					JOINT RightArm
					{
						OFFSET -7.778100 -0.187103 -1.709300
						CHANNELS 3 Xrotation Yrotation Zrotation
						JOINT RightForeArm
						{
							OFFSET -22.049376 0.000000 0.000000
							CHANNELS 3 Xrotation Yrotation Zrotation
							JOINT RightHand
							{
								OFFSET -23.009392 0.000000 0.000000
								CHANNELS 3 Xrotation Yrotation Zrotation
								JOINT RightHandThumb1
								{
									OFFSET -3.507191 -2.063065 3.133727
									CHANNELS 3 Xrotation Yrotation Zrotation
									JOINT RightHandThumb2
									{
										OFFSET -3.101337 -1.790558 1.790558
										CHANNELS 3 Xrotation Yrotation Zrotation
										JOINT RightHandThumb3
										{
											OFFSET -3.058640 -1.765907 1.765906
											CHANNELS 3 Xrotation Yrotation Zrotation
											End Site
											{
												OFFSET 0.415260 3.926476 -0.049563
											}
										}
									}
								}
								JOINT RightHandIndex1
								{
									OFFSET -11.334419 -0.901459 3.706815
									CHANNELS 3 Xrotation Yrotation Zrotation
									JOINT RightHandIndex2
									{
										OFFSET -3.283112 0.000000 0.000000
										CHANNELS 3 Xrotation Yrotation Zrotation
										JOINT RightHandIndex3
										{
											OFFSET -3.323853 0.000000 0.000000
											CHANNELS 3 Xrotation Yrotation Zrotation
											End Site
											{
												OFFSET 1.135597 3.097809 0.402452
											}
										}
									}
								}
								JOINT RightHandMiddle1
								{
									OFFSET -11.335861 0.000000 0.000000
									CHANNELS 3 Xrotation Yrotation Zrotation
									JOINT RightHandMiddle2
									{
										OFFSET -3.410492 0.000000 0.000000
										CHANNELS 3 Xrotation Yrotation Zrotation
										JOINT RightHandMiddle3
										{
											OFFSET -3.312172 0.000000 0.000000
											CHANNELS 3 Xrotation Yrotation Zrotation
											End Site
											{
												OFFSET 1.150200 3.080154 0.400270
											}
										}
									}
								}
								JOINT RightHandRing1
								{
									OFFSET -11.514786 -0.013176 -3.003090
									CHANNELS 3 Xrotation Yrotation Zrotation
									JOINT RightHandRing2
									{
										OFFSET -3.053307 0.000000 0.000000
										CHANNELS 3 Xrotation Yrotation Zrotation
										JOINT RightHandRing3
										{
											OFFSET -3.295807 0.000000 0.000000
											CHANNELS 3 Xrotation Yrotation Zrotation
											End Site
											{
												OFFSET 1.281006 3.013344 0.375733
											}
										}
									}
								}
								JOINT RightHandPinky1
								{
									OFFSET -10.518692 -0.960396 -5.730441
									CHANNELS 3 Xrotation Yrotation Zrotation
									JOINT RightHandPinky2
									{
										OFFSET -2.861649 0.000000 0.000000
										CHANNELS 3 Xrotation Yrotation Zrotation
										JOINT RightHandPinky3
										{
											OFFSET -2.863380 0.000000 0.000000
											CHANNELS 3 Xrotation Yrotation Zrotation
											End Site
											{
												OFFSET 0.843597 2.711159 0.369971
											}
										}
									}
								}
							}
							JOINT RSleeve
							{
								OFFSET -6.676277 -0.344902 -1.011730
								CHANNELS 3 Xrotation Yrotation Zrotation
								End Site
								{
									OFFSET 0.000000 14.885353 0.000000
								}
							}
						}
					}
				}
				JOINT Backpack
				{
					OFFSET 0.000000 -2.471497 36.677502
					CHANNELS 3 Xrotation Yrotation Zrotation
					End Site
					{
						OFFSET 0.000000 20.427315 0.000000
					}
				}
				JOINT Hood
				{
					OFFSET 0.000000 18.754097 -10.431000
					CHANNELS 3 Xrotation Yrotation Zrotation
					JOINT Hood1
					{
						OFFSET 0.000000 -5.011002 -7.685901
						CHANNELS 3 Xrotation Yrotation Zrotation
						End Site
						{
							OFFSET 0.000000 9.175140 0.000000
						}
					}
				}
				JOINT LHoodieString
				{
					OFFSET 5.250500 16.397697 3.089900
					CHANNELS 3 Xrotation Yrotation Zrotation
					JOINT LHoodieString1
					{
						OFFSET 0.257700 -6.364304 3.694600
						CHANNELS 3 Xrotation Yrotation Zrotation
						JOINT LHoodieString2
						{
							OFFSET 0.000000 -9.643799 2.679100
							CHANNELS 3 Xrotation Yrotation Zrotation
							End Site
							{
								OFFSET 0.000000 10.009018 0.000000
							}
						}
					}
				}
				JOINT RHoodieString
				{
					OFFSET -5.250500 16.397697 3.089900
					CHANNELS 3 Xrotation Yrotation Zrotation
					JOINT RHoodieString1
					{
						OFFSET -0.257700 -6.364304 3.694600
						CHANNELS 3 Xrotation Yrotation Zrotation
						JOINT RHoodieString2
						{
							OFFSET 0.000000 -9.643799 2.679100
							CHANNELS 3 Xrotation Yrotation Zrotation
							End Site
							{
								OFFSET 0.000000 10.009018 0.000000
							}
						}
					}
				}
			}
			JOINT LBackpack_Strap
			{
				OFFSET 15.223200 -7.719803 -6.610900
				CHANNELS 3 Xrotation Yrotation Zrotation
				End Site
				{
					OFFSET 0.000000 16.040596 0.000000
				}
			}
			JOINT RBackpack_Strap
			{
				OFFSET -15.223000 -7.719803 -6.610900
				CHANNELS 3 Xrotation Yrotation Zrotation
				End Site
				{
					OFFSET 0.000000 16.040596 0.000000
				}
			}
		}
	}
	JOINT BoyFacialAnim_Joint
	{
		OFFSET 1.000000 -82.208099 -1.550900
		CHANNELS 3 Xrotation Yrotation Zrotation
		End Site
		{
			OFFSET 0.000000 30.012791 0.000000
		}
	}
}
MOTION
Frames: 4
Frame Time: 0.033333
-0.279846 81.504608 4.107387 25.283212 -57.427527 27.518661 -0.000001 -0.000001 0.000000 -40.860879 -5.657892 10.994335 33.169311 13.787327 -6.154372 29.591002 -1.765455 -13.167130 -0.000001 -0.000003 0.000001 -0.000001 -0.000003 0.000000 -0.000000 0.000002 0.000000 -36.181626 6.678182 -23.717526 29.106588 3.407970 -4.892332 29.572813 5.076339 22.930244 0.000002 -0.000000 0.000000 0.000002 -0.000000 0.000000 -0.000001 0.000002 0.000002 9.835129 2.515614 -0.455003 1.533139 5.230441 -1.279647 1.558790 5.238686 -0.736223 -17.176859 19.641191 6.958226 10.549488 24.097259 -16.060778 0.000000 -0.000000 -0.000000 0.000000 -0.000000 -0.000000 0.000000 -0.000000 -0.000000 -4.812642 -14.738017 -11.457098 -16.554664 36.330114 -26.934784 -4.888512 -104.897403 -4.767893 -3.357498 -12.695818 38.436456 -1.890920 -4.005566 1.284458 2.373429 19.986095 -2.038344 0.000003 -0.000001 -0.000000 13.266855 -1.008890 -0.116621 -0.129028 0.323039 -64.391526 -0.000000 -0.000000 -0.000000 8.373758 -0.168171 -15.998758 0.336523 0.787603 -59.791292 0.000002 -0.000002 -0.000000 6.265094 3.003578 -31.361449 0.153081 0.433140 -56.148089 -0.000002 0.000002 -0.000003 -4.186638 6.986605 -27.514000 0.300082 0.340226 -68.388239 -0.000002 -0.000001 -0.000002 0.000000 -0.000001 -0.000000 -6.711765 -8.523809 -7.050480 -11.863697 -27.026954 51.514294 14.941319 115.495384 -13.481272 -1.962717 15.660314 -17.606694 -4.543657 6.938912 -4.787257 0.341284 -15.382003 5.448581 -0.000001 0.000002 -0.000001 11.929649 5.073520 6.010046 -0.362105 -0.295579 62.191946 -0.000004 0.000004 0.000002 7.525508 -0.468115 11.696328 0.566757 -0.753742 53.789246 -0.000001 0.000000 0.000001 7.547997 -6.635722 17.080336 0.406040 -0.369700 50.129671 -0.000003 0.000001 0.000001 4.562135 -9.046366 20.300929 0.360091 -0.332796 57.368835 0.000003 -0.000001 0.000004 -0.000000 0.000000 0.000001 0.000001 -0.000000 0.000001 0.000001 -0.000000 0.000001 0.000001 -0.000000 0.000001 0.000001 -0.000000 0.000001 0.000001 -0.000000 0.000003 -0.000001 -0.000002 -0.000000 0.000001 -0.000000 0.000001 0.000001 -0.000000 0.000003 -0.000001 -0.000002 -0.000000 -0.000000 0.000000 -0.000001 -0.000000 0.000000 -0.000001 -0.000001 -0.000001 0.000000 
0.738337 74.748428 3.161432 28.060427 -57.416257 30.254473 0.000000 0.000000 0.000001 -50.223754 -7.770867 11.666240 53.874275 15.861053 -9.222191 3.255275 -1.730475 -11.032536 0.000001 -0.000001 -0.000000 0.000001 -0.000001 -0.000000 -0.000000 -0.000002 -0.000000 -47.429503 10.884768 -21.711969 51.715833 2.520946 -7.213593 4.060758 -1.816823 23.468059 -0.000001 0.000001 -0.000001 -0.000001 0.000001 -0.000001 0.000003 -0.000000 0.000002 10.564803 2.180402 -1.554148 2.290107 4.641234 -1.920077 2.314032 4.724404 -1.441614 -20.165357 20.310488 6.713276 9.045380 24.725683 -14.172213 0.000000 0.000000 -0.000000 0.000000 0.000000 -0.000000 0.000000 0.000000 -0.000000 -4.317981 -15.142350 -10.324149 -21.332967 35.958057 -21.681751 2.371691 -104.287993 2.258617 -5.688132 -10.449231 39.182487 -1.901364 -3.930678 1.160623 2.373432 19.986110 -2.038341 0.000000 0.000000 0.000001 13.225498 -0.996263 2.150092 -0.128701 0.320112 -61.020111 -0.000001 0.000001 -0.000002 8.399219 -0.205046 -12.825811 0.314417 0.776230 -55.953596 0.000002 -0.000005 -0.000002 6.302348 2.953942 -27.629066 0.132940 0.418052 -51.956026 0.000001 -0.000000 -0.000004 -4.127800 7.021270 -23.402812 0.278288 0.330678 -63.953233 0.000000 -0.000004 0.000001 -0.000000 0.000002 0.000000 -5.883889 -8.411363 -6.686563 -12.284205 -19.051107 52.411938 23.591977 109.302937 -22.358821 -1.192994 16.083004 -22.603166 -4.556192 6.761509 -4.714080 -0.404675 -13.792269 6.014902 0.000000 0.000001 0.000001 11.763561 6.052756 1.743628 -0.315710 -0.245328 54.880157 0.000003 0.000000 0.000002 7.666575 -0.569129 6.436182 0.476982 -0.763165 46.598494 0.000000 0.000003 0.000002 7.980422 -7.515790 12.116385 0.331626 -0.361866 43.288691 -0.000000 -0.000000 0.000006 6.038009 -10.863501 15.481240 0.287561 -0.323863 49.003978 -0.000002 0.000002 -0.000001 0.000001 0.000001 -0.000003 0.000003 0.000001 0.000001 0.000003 0.000001 0.000001 0.000003 0.000001 0.000001 0.000003 0.000001 0.000001 0.000003 0.000001 -0.000000 0.000003 0.000001 -0.000000 0.000003 0.000001 0.000001 0.000003 0.000001 -0.000000 0.000003 0.000001 -0.000000 0.000000 -0.000003 0.000001 0.000000 -0.000003 0.000001 0.000000 0.000000 0.000001 
2.713608 67.955757 1.387612 32.698680 -55.604379 34.270846 -0.000000 0.000001 -0.000001 -61.463780 -11.169995 13.202094 69.249458 13.955980 -11.007827 -11.474245 -2.678813 -16.431857 -0.000000 0.000002 -0.000000 -0.000000 0.000002 -0.000000 -0.000001 0.000003 -0.000002 -60.935765 15.196700 -19.086322 70.412898 1.200062 -8.343078 -10.122947 -5.552003 22.248708 0.000001 0.000002 0.000000 0.000001 0.000002 0.000000 -0.000001 -0.000002 -0.000001 11.550194 1.847886 -2.624780 3.321623 3.948056 -2.799402 3.334430 4.135236 -2.263883 -23.236292 20.986952 6.513892 7.206054 24.075175 -13.260647 0.000000 0.000000 -0.000000 0.000000 0.000000 -0.000000 0.000000 0.000000 -0.000000 -3.448867 -15.687406 -9.182167 -26.679661 31.843066 -17.071938 -6.336072 -101.464079 -6.254751 -11.443059 -8.877414 40.540557 -1.911693 -3.855345 1.036299 2.373426 19.986105 -2.038346 -0.000002 0.000001 -0.000001 13.188464 -0.986877 4.616143 -0.128881 0.317310 -57.185506 -0.000001 -0.000004 -0.000006 8.427503 -0.242087 -9.497378 0.292157 0.761769 -51.763480 0.000000 -0.000000 -0.000003 6.332206 2.920691 -23.816946 0.112867 0.400727 -47.522376 -0.000001 -0.000002 -0.000001 -4.145015 7.092549 -19.294764 0.257534 0.318818 -59.387429 0.000004 0.000004 -0.000003 -0.000002 0.000003 0.000000 -4.389998 -8.206944 -6.045170 -15.042530 -11.516804 52.651381 41.120543 102.430421 -40.402454 -0.093363 16.590647 -29.135268 -4.567009 6.628823 -4.658175 -0.974532 -12.603026 6.453534 -0.000001 0.000002 -0.000001 11.755273 7.030423 -2.262136 -0.266761 -0.209661 47.854611 -0.000004 -0.000002 0.000001 7.769746 -0.671899 1.552631 0.394002 -0.755351 39.795179 0.000006 -0.000000 0.000001 8.226609 -8.431742 7.556600 0.265314 -0.341996 36.913167 -0.000002 -0.000001 0.000004 7.099812 -12.808623 11.161998 0.225624 -0.301870 41.385854 -0.000002 -0.000003 -0.000004 -0.000003 -0.000000 0.000002 -0.000002 -0.000001 0.000000 -0.000002 -0.000001 0.000000 -0.000002 -0.000001 0.000000 -0.000002 -0.000001 0.000000 -0.000002 -0.000001 0.000002 -0.000002 0.000001 0.000001 -0.000002 -0.000001 0.000000 -0.000002 -0.000001 0.000002 -0.000002 0.000001 0.000001 -0.000001 0.000001 0.000000 -0.000001 0.000001 0.000000 -0.000000 0.000001 -0.000001 
3.930351 63.040726 0.259198 35.618876 -53.978978 35.659120 0.000001 -0.000001 0.000000 -69.386553 -14.186625 14.933264 78.785242 12.823652 -11.642205 -20.041833 -3.515290 -19.911011 0.000000 -0.000000 -0.000000 0.000000 -0.000000 -0.000000 0.000002 -0.000003 0.000003 -70.064757 16.530772 -16.831808 81.521456 -0.078691 -8.668671 -18.377418 -7.566028 20.438057 -0.000000 -0.000001 0.000000 -0.000000 -0.000001 0.000000 0.000001 0.000001 -0.000004 13.146578 1.588265 -3.080462 4.866192 3.335061 -3.189746 4.871318 3.543373 -2.628545 -24.098688 21.529745 6.310013 4.306459 23.721906 -13.025592 0.000001 -0.000000 -0.000000 0.000001 -0.000000 -0.000000 0.000001 -0.000000 -0.000000 -2.127149 -16.223031 -7.329874 -27.516723 28.049999 -17.690207 -8.491923 -97.847699 -8.458337 -12.370987 -10.059646 43.902345 -1.921655 -3.781303 0.914644 2.373425 19.986102 -2.038345 -0.000000 -0.000000 0.000000 13.158422 -0.980896 7.218208 -0.129883 0.314679 -52.997777 -0.000003 -0.000001 -0.000000 8.458035 -0.278186 -6.091578 0.270865 0.744497 -47.331022 -0.000002 -0.000003 -0.000000 6.351732 2.903597 -20.011445 0.093651 0.381415 -42.957102 -0.000001 -0.000000 -0.000004 -4.238500 7.186954 -15.283494 0.238598 0.305266 -54.800845 0.000003 0.000003 0.000000 -0.000001 0.000007 0.000003 -2.703594 -7.861236 -5.305314 -20.060774 -3.203090 54.317209 124.474214 98.390323 -124.651198 1.210449 17.071769 -36.214131 -4.574237 6.549267 -4.624008 -1.321761 -11.889070 6.723156 0.000001 -0.000002 0.000001 11.878731 7.964386 -5.913558 -0.219244 -0.187844 41.256590 0.000003 -0.000001 0.000002 7.841787 -0.762212 -2.826292 0.321637 -0.734678 33.534788 -0.000001 0.000003 0.000004 8.312064 -9.313596 3.522733 0.209863 -0.314355 31.166102 0.000001 0.000000 -0.000003 7.786814 -14.718310 7.445852 0.176460 -0.272566 34.741248 -0.000003 0.000001 0.000002 0.000001 -0.000001 -0.000003 0.000002 0.000002 0.000000 0.000002 0.000002 0.000000 0.000002 0.000002 0.000000 0.000002 0.000002 0.000000 0.000002 0.000002 -0.000001 0.000002 -0.000001 0.000001 0.000002 0.000002 0.000000 0.000002 0.000002 -0.000001 0.000002 -0.000001 0.000001 0.000002 -0.000003 0.000001 0.000002 -0.000003 0.000001 0.000001 -0.000001 0.000000 
